<svg xmlns="http://www.w3.org/2000/svg" width="25.007" height="25.007" viewBox="0 0 25.007 25.007">
  <defs>
    <style>
      .cls-1 {
        fill: #fff;
      }
    </style>
  </defs>
  <path id="_002-linkedin" data-name="002-linkedin" class="cls-1" d="M12.5,0a12.5,12.5,0,1,0,12.5,12.5A12.5,12.5,0,0,0,12.5,0ZM8.87,18.9H5.825V9.74H8.87ZM7.348,8.489h-.02a1.587,1.587,0,1,1,.04-3.166,1.588,1.588,0,1,1-.02,3.166ZM19.85,18.9H16.806V14c0-1.232-.441-2.072-1.543-2.072A1.667,1.667,0,0,0,13.7,13.042a2.085,2.085,0,0,0-.1.743V18.9H10.555s.04-8.3,0-9.161H13.6v1.3a3.023,3.023,0,0,1,2.744-1.512c2,0,3.506,1.309,3.506,4.123Zm0,0"/>
</svg>
