<svg id="_003-instagram" data-name="003-instagram" xmlns="http://www.w3.org/2000/svg" width="25.009" height="25.009" viewBox="0 0 25.009 25.009">
  <defs>
    <style>
      .cls-1 {
        fill: #fff;
      }
    </style>
  </defs>
  <path id="Trazado_38" data-name="Trazado 38" class="cls-1" d="M211.787,209.393A2.393,2.393,0,1,1,209.393,207,2.393,2.393,0,0,1,211.787,209.393Zm0,0" transform="translate(-196.889 -196.889)"/>
  <path id="Trazado_39" data-name="Trazado 39" class="cls-1" d="M146.968,137.14a2.378,2.378,0,0,0-1.363-1.363,3.972,3.972,0,0,0-1.333-.247c-.757-.035-.984-.042-2.9-.042s-2.144.007-2.9.042a3.974,3.974,0,0,0-1.333.247,2.379,2.379,0,0,0-1.363,1.363,3.973,3.973,0,0,0-.247,1.333c-.035.757-.042.984-.042,2.9s.007,2.144.042,2.9a3.971,3.971,0,0,0,.247,1.333,2.378,2.378,0,0,0,1.363,1.363,3.968,3.968,0,0,0,1.333.247c.757.035.984.042,2.9.042s2.145-.007,2.9-.042a3.968,3.968,0,0,0,1.333-.247,2.378,2.378,0,0,0,1.363-1.363,3.976,3.976,0,0,0,.247-1.333c.035-.757.042-.984.042-2.9s-.007-2.144-.042-2.9A3.968,3.968,0,0,0,146.968,137.14Zm-5.6,7.922a3.687,3.687,0,1,1,3.687-3.687A3.687,3.687,0,0,1,141.371,145.062ZM145.2,138.4a.862.862,0,1,1,.862-.862A.862.862,0,0,1,145.2,138.4Zm0,0" transform="translate(-128.867 -128.87)"/>
  <path id="Trazado_40" data-name="Trazado 40" class="cls-1" d="M12.5,0a12.5,12.5,0,1,0,12.5,12.5A12.506,12.506,0,0,0,12.5,0Zm7.137,15.465a5.268,5.268,0,0,1-.334,1.743,3.671,3.671,0,0,1-2.1,2.1,5.272,5.272,0,0,1-1.743.334c-.766.035-1.01.043-2.96.043s-2.195-.008-2.96-.043A5.272,5.272,0,0,1,7.8,19.308a3.671,3.671,0,0,1-2.1-2.1,5.267,5.267,0,0,1-.334-1.743c-.035-.766-.044-1.01-.044-2.96s.008-2.195.043-2.96A5.269,5.269,0,0,1,5.7,7.8,3.674,3.674,0,0,1,7.8,5.7a5.273,5.273,0,0,1,1.743-.334c.766-.035,1.01-.043,2.96-.043s2.195.008,2.96.044a5.274,5.274,0,0,1,1.743.333,3.672,3.672,0,0,1,2.1,2.1,5.267,5.267,0,0,1,.334,1.743c.035.766.043,1.01.043,2.96S19.676,14.7,19.641,15.465Zm0,0"/>
</svg>
