<svg xmlns="http://www.w3.org/2000/svg" xmlns:xlink="http://www.w3.org/1999/xlink" width="100" height="100" viewBox="0 0 100 100">
  <defs>
    <linearGradient id="linear-gradient" x1="0.5" x2="0.5" y2="1" gradientUnits="objectBoundingBox">
      <stop offset="0" stop-color="#fff"/>
      <stop offset="0.532" stop-color="#fff"/>
      <stop offset="1" stop-color="#f1feff"/>
    </linearGradient>
  </defs>
  <g id="Grupo_8213" data-name="Grupo 8213" transform="translate(-633 -1464.117)">
    <g id="Elipse_695" data-name="Elipse 695" transform="translate(633 1464.117)" stroke="#1489ff" stroke-width="1" fill="url(#linear-gradient)">
      <circle cx="50" cy="50" r="50" stroke="none"/>
      <circle cx="50" cy="50" r="49.5" fill="none"/>
    </g>
    <path id="form" d="M13.182,44.421a1.806,1.806,0,0,1-1.806,1.806H7.223A7.231,7.231,0,0,1,0,39V7.223A7.231,7.231,0,0,1,7.223,0h22.2a7.231,7.231,0,0,1,7.223,7.223V17.967a1.806,1.806,0,1,1-3.611,0V7.223a3.616,3.616,0,0,0-3.611-3.611H7.223A3.616,3.616,0,0,0,3.611,7.223V39a3.616,3.616,0,0,0,3.611,3.611h4.153A1.806,1.806,0,0,1,13.182,44.421ZM29.423,12.64a1.806,1.806,0,0,0-1.806-1.806H9.018a1.806,1.806,0,0,0,0,3.611h18.6A1.806,1.806,0,0,0,29.423,12.64ZM22.21,19.863A1.806,1.806,0,0,0,20.4,18.057H9.018a1.806,1.806,0,0,0,0,3.611H20.4A1.806,1.806,0,0,0,22.21,19.863ZM9.018,25.28a1.806,1.806,0,0,0,0,3.611h7.5a1.806,1.806,0,1,0,0-3.611Zm31.5,19.6a3.615,3.615,0,0,1-2.813,1.343H20.075a3.65,3.65,0,0,1-3.566-4.4,12.663,12.663,0,0,1,7.1-8.923,7.042,7.042,0,1,1,10.571,0,12.583,12.583,0,0,1,2.747,1.723,12.726,12.726,0,0,1,4.314,7.031c.014.048.026.1.036.145A3.68,3.68,0,0,1,40.521,44.883ZM25.461,28.257a3.431,3.431,0,1,0,3.431-3.431A3.435,3.435,0,0,0,25.461,28.257ZM37.739,42.564a.013.013,0,0,1,0,0,9.033,9.033,0,0,0-17.693,0,.047.047,0,0,0,.02.054H37.708A.086.086,0,0,0,37.739,42.564Zm0,0" transform="translate(662.5 1490.617)" fill="#002b39" stroke="#fff" stroke-width="1"/>
  </g>
</svg>
