<?xml version="1.0" encoding="UTF-8"?> <svg xmlns="http://www.w3.org/2000/svg" width="169" height="169" viewBox="0 0 169 169"><defs><filter id="a" x="0" y="0" width="169" height="169"><feOffset dy="20"></feOffset><feFlood flood-color="#FFFFF" flood-opacity="0"></feFlood><feComposite operator="in" in2="blur"></feComposite><feComposite in="SourceGraphic"></feComposite></filter></defs><g data-name="Grupo 7023"><g style="filter:url(#a)"><g data-name="Elipse 672" transform="translate(34.5 14.503)" style="fill:#1489ff;stroke:#1489ff"><circle cx="50" cy="50" r="50" style="stroke:none"></circle><circle cx="50" cy="50" r="49.5" style="fill:none"></circle></g></g><path d="M38.621 6.626A22.624 22.624 0 0 0 6.626 38.621 22.624 22.624 0 0 0 38.621 6.626zM11.342 39.1a11.456 11.456 0 0 1 22.564 0 19.929 19.929 0 0 1-22.564 0zm4.088-19.316a7.193 7.193 0 1 1 7.193 7.193 7.2 7.2 0 0 1-7.193-7.193zM36.2 37.256a14.129 14.129 0 0 0-8.214-9.222 9.845 9.845 0 1 0-10.728 0 14.127 14.127 0 0 0-8.214 9.221 19.972 19.972 0 1 1 27.156 0zm0 0" transform="translate(61.5 41.5)" style="fill:#f0f4f5"></path></g></svg> 