<svg xmlns="http://www.w3.org/2000/svg" width="169" height="169">
    <defs>
        <linearGradient id="b" x1=".5" x2=".5" y2="1" gradientUnits="objectBoundingBox">
            <stop offset="0" stop-color="#fff"/>
            <stop offset=".532" stop-color="#fff"/>
            <stop offset="1" stop-color="#f1feff"/>
        </linearGradient>
        <filter id="a" x="0" y="0" width="169" height="169" filterUnits="userSpaceOnUse">
            <feOffset dy="20"/>
            <feGaussianBlur stdDeviation="11.5" result="blur"/>
            <feFlood flood-color="#99b0be" flood-opacity=".302"/>
            <feComposite operator="in" in2="blur"/>
            <feComposite in="SourceGraphic"/>
        </filter>
    </defs>
    <g data-name="Grupo 7003">
        <g style="filter:url(#a)">
            <g data-name="Elipse 674" transform="translate(34.5 14.503)" style="stroke:#1489ff;fill:url(#b)">
                <circle cx="50" cy="50" r="50" style="stroke:none"/>
                <circle cx="50" cy="50" r="49.5" style="fill:none"/>
            </g>
        </g>
        <path d="M48.994 32.3a3.154 3.154 0 0 0-1.732-1.82V8.384A2.391 2.391 0 0 0 44.877 6h-25.43a2.391 2.391 0 0 0-2.384 2.384v22.275a16.1 16.1 0 0 0-2.575 1.47l-2.5 1.748-.914-1.3a.8.8 0 0 0-1.1-.2l-7.812 5.466a.808.808 0 0 0-.2 1.113l8.211 11.714a.8.8 0 0 0 1.1.2l7.816-5.47a.81.81 0 0 0 .2-1.113l-.453-.644a7.073 7.073 0 0 1 5.245-1.121l1.415.238a10.331 10.331 0 0 0 5.332-.461l16.267-5.92a3.179 3.179 0 0 0 1.9-4.077zM36.136 7.589h8.742a.8.8 0 0 1 .795.795v2.384h-9.537zm-6.358 0h4.768v6.826l-1.82-1.828a.8.8 0 0 0-1.128 0l-1.82 1.828zm-11.126.795a.8.8 0 0 1 .795-.795h8.742v3.179h-9.537zm0 3.973h9.536v3.973a.784.784 0 0 0 .493.731.8.8 0 0 0 .866-.167l2.615-2.622 2.615 2.628a.8.8 0 0 0 .564.23.666.666 0 0 0 .3-.064.784.784 0 0 0 .493-.731v-3.977h9.536v17.888a3.057 3.057 0 0 0-.747.159l-2.811 1.025h-5.587a3.078 3.078 0 0 0-1.47-.691l-7.987-1.407a16.683 16.683 0 0 0-7.74.461l-.143.048c-.183.048-.358.119-.532.183zm-7.637 36.755L3.728 38.694l6.509-4.562 7.287 10.418zm36.564-15.441a1.589 1.589 0 0 1-1.025 1.216l-16.267 5.92a8.732 8.732 0 0 1-4.514.389l-1.423-.238a8.649 8.649 0 0 0-6.429 1.383l-5.015-7.168 2.5-1.74a14.781 14.781 0 0 1 4.22-2.066l.143-.04a15.293 15.293 0 0 1 7.031-.437l7.977 1.41a1.628 1.628 0 0 1 1.033.66 1.6 1.6 0 0 1 .262.683 1.405 1.405 0 0 1-.04.668 1.6 1.6 0 0 1-1.82 1.128l-8.591-1.518-.27 1.558 8.583 1.518a2.717 2.717 0 0 0 .564.056 3.192 3.192 0 0 0 3.052-2.265l7.915-2.888a1.589 1.589 0 0 1 2.034.954 1.51 1.51 0 0 1 .079.819z" transform="translate(58.676 35.5)" style="fill:#002b39;stroke:#002b39;stroke-width:.5px"/>
    </g>
</svg>
