<?xml version="1.0" encoding="UTF-8"?> <svg xmlns="http://www.w3.org/2000/svg" width="375" height="150.37" viewBox="0 0 375 150.37"><defs><linearGradient id="a" x1="1" y1=".456" x2="0" y2=".5" gradientUnits="objectBoundingBox"><stop offset="0" stop-color="#037af2"></stop><stop offset=".113" stop-color="#1489ff"></stop><stop offset=".31" stop-color="#2fc6ff"></stop><stop offset=".502" stop-color="#45f7ff"></stop><stop offset=".704" stop-color="#2fc5ff"></stop><stop offset=".906" stop-color="#1489ff"></stop><stop offset="1" stop-color="#037af2"></stop></linearGradient><filter id="b"><feOffset></feOffset><feGaussianBlur stdDeviation="22.5" result="blur"></feGaussianBlur><feFlood flood-color="#062039" flood-opacity=".349" result="color"></feFlood><feComposite operator="out" in="SourceGraphic" in2="blur"></feComposite><feComposite operator="in" in="color"></feComposite><feComposite operator="in" in2="SourceGraphic"></feComposite></filter></defs><g data-type="innerShadowGroup"><path data-name="Sustracción 11" d="M554 57.391A381.284 381.284 0 0 0 416.6 11.7a388.842 388.842 0 0 0-100.458-.016A381.137 381.137 0 0 0 179 57.183V-92.769a381.367 381.367 0 0 0 88.923 36.062 382.921 382.921 0 0 0 48.215 9.491 388.459 388.459 0 0 0 50.176 3.254 388.292 388.292 0 0 0 50.283-3.27 382.99 382.99 0 0 0 48.317-9.534A381.51 381.51 0 0 0 554-92.978V57.39z" transform="translate(-179 92.978)" style="fill:url(#a);mix-blend-mode:multiply;isolation:isolate"></path><g style="filter:url(#b);mix-blend-mode:multiply;isolation:isolate"><path data-name="Sustracción 11" d="M554 57.391A381.284 381.284 0 0 0 416.6 11.7a388.842 388.842 0 0 0-100.458-.016A381.137 381.137 0 0 0 179 57.183V-92.769a381.367 381.367 0 0 0 88.923 36.062 382.921 382.921 0 0 0 48.215 9.491 388.459 388.459 0 0 0 50.176 3.254 388.292 388.292 0 0 0 50.283-3.27 382.99 382.99 0 0 0 48.317-9.534A381.51 381.51 0 0 0 554-92.978V57.39z" transform="translate(-179 92.98)" style="fill:#fff"></path></g></g></svg> 