<svg id="tiktok" xmlns="http://www.w3.org/2000/svg" width="25.007" height="25.007" viewBox="0 0 25.007 25.007">
  <defs>
    <style>
      .cls-1 {
        fill: #fff;
      }
    </style>
  </defs>
  <path id="Trazado_5823" data-name="Trazado 5823" class="cls-1" d="M12.5,0a12.5,12.5,0,1,0,12.5,12.5A12.5,12.5,0,0,0,12.5,0Zm6.273,9.567V11.26a5.908,5.908,0,0,1-3.615-1.228l.012,5.211a4.365,4.365,0,0,1-1.309,3.106,4.456,4.456,0,0,1-2.489,1.245,4.589,4.589,0,0,1-.672.049,4.471,4.471,0,0,1-2.74-.927,4.546,4.546,0,0,1-.421-.368,4.381,4.381,0,0,1-.2-6.041A4.471,4.471,0,0,1,10.7,10.8a4.589,4.589,0,0,1,.672.05v2.367a2.108,2.108,0,1,0,1.45,2l0-3.49V5.364h2.332A3.609,3.609,0,0,0,18.77,8.939h.007v.628Z"/>
</svg>
