<svg id="twitter-1" xmlns="http://www.w3.org/2000/svg" width="25.009" height="25.009" viewBox="0 0 25.009 25.009">
  <defs>
    <style>
      .cls-1 {
        fill: #fff;
      }
    </style>
  </defs>
  <path id="Trazado_5824" data-name="Trazado 5824" class="cls-1" d="M12.5,0a12.5,12.5,0,1,0,12.5,12.5A12.506,12.506,0,0,0,12.5,0Zm5.709,9.75q.008.185.008.371a8.111,8.111,0,0,1-8.166,8.166h0A8.124,8.124,0,0,1,5.656,17a5.838,5.838,0,0,0,.685.04,5.759,5.759,0,0,0,3.565-1.229,2.873,2.873,0,0,1-2.681-1.993,2.861,2.861,0,0,0,1.3-.049,2.871,2.871,0,0,1-2.3-2.813c0-.013,0-.025,0-.037a2.85,2.85,0,0,0,1.3.359A2.873,2.873,0,0,1,6.63,7.443a8.149,8.149,0,0,0,5.916,3,2.872,2.872,0,0,1,4.891-2.617,5.757,5.757,0,0,0,1.823-.7A2.881,2.881,0,0,1,18,8.715a5.724,5.724,0,0,0,1.648-.452A5.833,5.833,0,0,1,18.214,9.75Zm0,0"/>
</svg>
