<svg id="youtube_venn_footer" xmlns="http://www.w3.org/2000/svg" width="25.007" height="25.007">
    <defs>
        <style>
            .cls-1{fill:#fff}
        </style>
    </defs>
    <path id="Trazado_5983" data-name="Trazado 5983" class="cls-1" d="m224.113 215.49 6.468-3.725-6.468-3.725zm0 0" transform="translate(-214.422 -199.261)"/>
    <path id="Trazado_5984" data-name="Trazado 5984" class="cls-1" d="M12.5 0A12.5 12.5 0 1 0 25 12.5 12.5 12.5 0 0 0 12.5 0zm7.813 12.516a20.637 20.637 0 0 1-.322 3.759 1.958 1.958 0 0 1-1.377 1.377 47.523 47.523 0 0 1-6.114.322 45.823 45.823 0 0 1-6.114-.335 1.958 1.958 0 0 1-1.377-1.377 20.546 20.546 0 0 1-.318-3.762 20.623 20.623 0 0 1 .322-3.758A2 2 0 0 1 6.39 7.355a47.523 47.523 0 0 1 6.11-.322 45.725 45.725 0 0 1 6.114.335 1.958 1.958 0 0 1 1.377 1.377 19.584 19.584 0 0 1 .325 3.771zm0 0"/>
</svg>
